# xmcd CD database file
#
# Track frame offsets:
#	150
#	12701
#	26877
#	41127
#	54376
#	69251
#	84232
#	95500
#	109548
#	118757
#	130578
#	144245
#	157197
#	169949
#
# Disc length: 2495 seconds
#
# Revision: 0
# Processed by: cddbd v1.5.2PL0 Copyright (c) Steve Scherf et al.
# Submitted via: CDex 1.70beta2
#
DISCID=ba09bd0e
DTITLE=Pavel bobek - Víc nehledám
DYEAR=1900
DGENRE=Country
TTITLE0=Víc nehledám - I Walk The Line
TTITLE1=Dokud budu žít - As Long As I Live
TTITLE2=Desperát - Highwayman
TTITLE3=To já nejsem - It Ain't Me, Babe
TTITLE4=Kdo o mě bude stát - I Still Miss Someone
TTITLE5=Dívka ze severu - Girl From The North Country
TTITLE6=Velká řeka - Big River
TTITLE7=Nenos kolty do města - Don't Take Your Guns To Town
TTITLE8=Co naděláš - Things Happen That Way
TTITLE9=Pohádka o dívce snů - Ballad Of A Teenage Queen
TTITLE10=Dlouhý šál - Long Black Veil
TTITLE11=Tanhle splín - That Old Wheel
TTITLE12=Štěstí mé jsi ty - Happiness Is You
TTITLE13=Nedělní ráno - Sunday Morning Coming Down
EXTD=
EXTT0=
EXTT1=
EXTT2=
EXTT3=
EXTT4=
EXTT5=
EXTT6=
EXTT7=
EXTT8=
EXTT9=
EXTT10=
EXTT11=
EXTT12=
EXTT13=
PLAYORDER=
